<svg width="462" height="198" viewBox="0 0 462 198" fill="none" xmlns="http://www.w3.org/2000/svg">
<mask id="mask0_8_2853" style="mask-type:alpha" maskUnits="userSpaceOnUse" x="0" y="0" width="462" height="198">
<path d="M0 43.9683C0 37.8975 4.92131 32.9762 10.9921 32.9762C17.0628 32.9762 21.9841 37.8975 21.9841 43.9683V153.889C21.9841 159.96 17.0628 164.881 10.9921 164.881C4.92131 164.881 0 159.96 0 153.889V43.9683Z" fill="white"/>
<path d="M54.9603 76.9445C54.9603 70.8737 59.8816 65.9524 65.9524 65.9524C72.0231 65.9524 76.9445 70.8737 76.9445 76.9444V120.913C76.9445 126.983 72.0231 131.905 65.9524 131.905C59.8816 131.905 54.9603 126.983 54.9603 120.913V76.9445Z" fill="white"/>
<path d="M109.921 54.9603C109.921 48.8895 114.842 43.9682 120.913 43.9682C126.984 43.9682 131.905 48.8895 131.905 54.9603V142.897C131.905 148.968 126.984 153.889 120.913 153.889C114.842 153.889 109.921 148.968 109.921 142.897V54.9603Z" fill="white"/>
<path d="M164.881 65.9524C164.881 59.8816 169.802 54.9603 175.873 54.9603C181.944 54.9603 186.865 59.8816 186.865 65.9524V131.905C186.865 137.976 181.944 142.897 175.873 142.897C169.802 142.897 164.881 137.976 164.881 131.905V65.9524Z" fill="white"/>
<path d="M219.841 10.9921C219.841 4.92133 224.763 0 230.833 0C236.904 0 241.825 4.92132 241.825 10.9921V186.865C241.825 192.936 236.904 197.857 230.833 197.857C224.763 197.857 219.841 192.936 219.841 186.865V10.9921Z" fill="white"/>
<path d="M274.802 21.9841C274.802 15.9134 279.723 10.9921 285.794 10.9921C291.864 10.9921 296.786 15.9134 296.786 21.9841V175.873C296.786 181.944 291.864 186.865 285.794 186.865C279.723 186.865 274.802 181.944 274.802 175.873V21.9841Z" fill="white"/>
<path d="M329.762 71.4484C329.762 65.3777 334.683 60.4563 340.754 60.4563C346.825 60.4563 351.746 65.3777 351.746 71.4484V126.409C351.746 132.479 346.825 137.401 340.754 137.401C334.683 137.401 329.762 132.479 329.762 126.409V71.4484Z" fill="white"/>
<path d="M384.722 43.9683C384.722 37.8975 389.644 32.9762 395.714 32.9762C401.785 32.9762 406.706 37.8975 406.706 43.9683V153.889C406.706 159.96 401.785 164.881 395.714 164.881C389.644 164.881 384.722 159.96 384.722 153.889V43.9683Z" fill="white"/>
<path d="M439.683 76.9444C439.683 70.8737 444.604 65.9523 450.675 65.9523C456.745 65.9523 461.667 70.8736 461.667 76.9444V120.913C461.667 126.983 456.745 131.905 450.675 131.905C444.604 131.905 439.683 126.983 439.683 120.913V76.9444Z" fill="white"/>
</mask>
<g mask="url(#mask0_8_2853)">
<rect x="-4" y="-2" width="466" height="200" fill="url(#paint0_linear_8_2853)"/>
</g>
<defs>
<linearGradient id="paint0_linear_8_2853" x1="-3.99998" y1="-99" x2="694" y2="315" gradientUnits="userSpaceOnUse">
<stop stop-color="#595CFF"/>
<stop offset="1" stop-color="#C6F8FF"/>
</linearGradient>
</defs>
</svg>
