<svg width="587" height="122" viewBox="0 0 587 122" fill="none" xmlns="http://www.w3.org/2000/svg">
<path d="M528.884 6.83987C524.864 7.8628 520.868 10.6699 518.608 14.0717C517.656 15.4991 517.585 15.5467 515.491 16.2841C506.404 19.5432 497.863 25.8473 491.964 33.7215C491.25 34.6731 490.632 35.1489 489.18 35.8863C485.66 37.6467 483.019 40.3587 481.354 43.8557C480.141 46.3773 479.736 48.2328 479.736 51.2303C479.736 54.085 480.117 55.9643 481.164 58.248C481.758 59.4851 481.782 59.7467 481.758 63.4816C481.734 65.6464 481.83 68.4773 481.972 69.7857C483.423 83.06 489.942 95.2876 500.052 103.733C512.755 114.343 529.788 118.22 545.656 114.152C564.045 109.395 578.556 94.5977 582.838 76.2088C583.766 72.1884 584.099 69.1672 584.146 64.1953C584.194 59.4613 584.218 59.271 584.812 58.0101C585.859 55.8216 586.24 53.5616 586.097 50.4214C585.954 47.3526 585.502 45.6636 584.099 42.9517C582.576 40.0494 578.913 36.6951 576.034 35.5533C575.297 35.244 574.631 34.6017 573.108 32.6748C567.375 25.4429 559.263 19.5432 550.889 16.4744L548.32 15.5467L547.035 13.7149C544.847 10.6223 541.897 8.43374 538.305 7.2205C535.664 6.3403 531.501 6.17378 528.884 6.83987ZM536.925 9.3853C540.493 10.432 544.038 13.2391 545.798 16.4031C548.962 22.0887 547.939 29.3205 543.324 33.9356C540.612 36.6238 537.472 38.0035 533.595 38.1939C523.794 38.7172 516.324 29.5822 518.655 19.9476C519.892 14.7616 524.507 10.3369 529.907 9.14741C531.882 8.69542 534.998 8.81437 536.925 9.3853ZM516.086 20.1855C515.919 21.0419 515.753 22.731 515.753 23.9204C515.753 25.5857 515.681 26.1328 515.444 26.1328C514.92 26.1328 509.901 29.0826 508.045 30.4862C507.094 31.1999 505.5 32.5083 504.501 33.3885L502.693 34.9823L501.075 34.5541C500.123 34.3162 498.506 34.1497 497.15 34.1259C495.342 34.1021 494.89 34.0308 495.033 33.7929C495.128 33.6264 496.079 32.5321 497.174 31.3664C500.433 27.8218 505.167 24.1107 509.377 21.7556C510.9 20.923 516.276 18.4727 516.371 18.5917C516.395 18.6155 516.276 19.3291 516.086 20.1855ZM554.006 20.5424C558.668 22.8023 562.046 25.0623 565.805 28.4879C567.589 30.1294 570.943 33.6977 570.943 33.9832C570.943 34.0546 569.944 34.1021 568.731 34.1259C567.47 34.1259 565.829 34.3162 564.83 34.5541L563.117 34.9823L561.261 33.2933C558.716 30.962 555.695 28.8448 552.578 27.2033L549.961 25.8473L550.128 24.7292C550.271 23.7063 549.985 20.5186 549.628 19.2578C549.462 18.7344 549.509 18.7106 550.152 18.8533C550.532 18.9485 552.269 19.7098 554.006 20.5424ZM517.252 30.4862C517.727 31.5567 518.631 33.0792 519.202 33.8643C519.797 34.6493 520.273 35.363 520.273 35.4581C520.273 35.5295 520.035 35.696 519.749 35.7912C518.679 36.1004 514.754 38.5745 512.946 40.0256L511.09 41.5243L510.02 40.1921C509.116 39.0503 506.975 37.1947 505.595 36.3859C505.214 36.148 505.309 36.0053 506.475 34.9348C508.354 33.2457 511.614 30.962 514.016 29.6536C515.182 29.0351 516.157 28.5117 516.229 28.5117C516.3 28.5117 516.752 29.3919 517.252 30.4862ZM551.175 29.2016C554.172 30.7241 560.476 35.4105 560.476 36.1004C560.476 36.2194 559.905 36.6714 559.215 37.1471C558.502 37.5991 557.193 38.7886 556.289 39.7639L554.672 41.5481L553.458 40.4538C552.055 39.193 549.058 37.1947 546.988 36.148L545.489 35.4105L546.536 34.0308C547.654 32.6034 548.915 30.2721 549.176 29.154C549.272 28.7972 549.438 28.5117 549.557 28.5117C549.676 28.5117 550.413 28.821 551.175 29.2016ZM500.409 36.9806C504.62 38.0511 508.212 40.9534 509.996 44.7121C511.185 47.2099 511.542 48.78 511.542 51.3492C511.518 55.3696 510.115 58.6525 507.189 61.6023C505.785 63.0296 504.976 63.6244 503.383 64.3856C500.79 65.5989 499.267 65.9557 496.603 65.9319C492.63 65.8843 488.847 64.1953 486.135 61.293C484.518 59.5326 483.138 57.0348 482.567 54.7986C482.115 52.9907 482.115 49.4699 482.567 47.6619C483.899 42.4759 487.991 38.3842 493.272 36.9568C494.914 36.5048 498.672 36.5048 500.409 36.9806ZM572.49 36.9568C580.316 38.9789 585.074 46.52 583.433 54.3228C581.601 63.0058 572.204 68.1443 563.902 65.0279C555.266 61.7688 551.698 51.4682 556.48 43.5702C558.335 40.5252 562.023 37.7894 565.401 36.9806C567.28 36.5286 570.753 36.5048 572.49 36.9568ZM524.269 38.3604C526.577 39.6926 528.48 40.3349 531.025 40.6203C535.046 41.0723 539.542 39.978 542.706 37.7419C543.372 37.2661 543.372 37.2661 544.609 37.7657C545.275 38.0511 546.631 38.7648 547.63 39.3357C549.557 40.4538 553.34 43.4037 553.34 43.7367C553.34 43.8557 553.054 44.8072 552.697 45.8064C551.936 48.0425 551.674 52.1343 552.15 54.5132C553.125 59.5564 556.955 64.6473 561.261 66.598C561.999 66.931 562.046 67.3592 561.642 69.5716C560.762 74.5198 558.216 79.8723 555.005 83.512L554.006 84.6539H544.871L544.609 83.3693C544.205 81.4186 543.205 79.563 541.778 77.993C539.804 75.8995 537.686 74.6625 535.141 74.2343L534.189 74.044L533.951 50.0408L533.309 49.8267C532.786 49.6364 532.548 49.684 532.167 50.0408C531.692 50.469 531.692 50.7069 531.692 62.2922V74.1153L530.526 74.2819C529.884 74.377 528.575 74.829 527.6 75.3048C524.246 76.9938 522.009 79.9674 521.129 83.9878L520.986 84.6539H511.756L510.258 82.727C507.165 78.8256 505.024 74.0916 504.215 69.3337C504.025 68.1681 503.858 67.1927 503.858 67.1689C503.858 67.1214 504.596 66.6694 505.524 66.1222C511.875 62.3398 515.182 54.9889 513.731 47.876C513.517 46.9007 513.136 45.616 512.874 44.9975L512.399 43.9032L513.065 43.2134C514.326 41.8812 517.299 39.8115 519.749 38.5507C521.082 37.8846 522.247 37.3137 522.295 37.3137C522.366 37.3137 523.246 37.7894 524.269 38.3604ZM489.109 66.5742C490.941 67.502 491.012 67.5496 491.012 68.3822C491.012 70.7611 492.225 76.1374 493.534 79.5155C495.699 85.1297 498.744 89.7685 503.145 94.1933C511.328 102.401 521.319 106.564 532.881 106.54C540.089 106.54 545.513 105.279 551.841 102.139C557.764 99.2128 562.617 95.1449 566.685 89.7685C571.086 83.964 574.084 76.3515 574.892 68.9531L575.059 67.4068L576.915 66.4791C577.937 65.9795 579.412 64.9803 580.221 64.2667L581.649 62.9583V65.6702C581.649 70.4518 580.483 76.5894 578.627 81.5375C572.252 98.6181 556.575 110.869 538.471 112.963C535.379 113.296 529.765 113.248 526.648 112.844C512.185 110.941 499.172 102.519 491.44 90.0778C486.944 82.8221 484.113 73.021 484.113 64.6473V62.9821L485.66 64.3142C486.516 65.0279 488.062 66.0509 489.109 66.5742ZM501.836 70.0236C502.716 74.8766 504.762 79.5392 507.641 83.3455C508.497 84.5112 509.306 85.5817 509.449 85.772C509.615 86.0099 508.997 86.7711 506.903 88.8646L504.12 91.6479L503.597 91.1721C502.05 89.7923 498.958 85.2962 497.34 82.1085C495.627 78.6591 494.01 73.3065 493.534 69.3813L493.415 68.2632L495.96 68.3822C497.602 68.4535 499.005 68.3822 499.933 68.1681C500.718 68.0016 501.384 67.8588 501.408 67.8826C501.408 67.8826 501.598 68.8342 501.836 70.0236ZM569.73 68.3346L572.418 68.3108L572.276 69.7619C571.514 76.637 567.851 84.8204 562.927 90.5298L561.951 91.6717L559.096 88.8408L556.218 86.0099L557.717 84.083C558.526 83.0125 559.477 81.7278 559.81 81.1807C561.737 78.1833 563.545 73.4255 564.068 69.9285L564.378 67.9778L565.686 68.1681C566.424 68.2632 568.232 68.3584 569.73 68.3346ZM537.115 77.4934C537.948 77.9216 539.114 78.7304 539.708 79.3251C540.708 80.3481 541.945 82.5842 542.254 83.9878L542.397 84.6539H523.556L523.698 83.8926C524.15 81.6327 526.006 79.0635 528.076 77.8502C529.86 76.8035 530.883 76.5656 533.357 76.637C535.355 76.7083 535.783 76.8035 537.115 77.4934ZM557.027 90.3871L560.119 93.4796L558.954 94.4788C554.077 98.6657 548.035 101.711 541.683 103.186C534.903 104.756 527.172 104.375 520.368 102.115C515.777 100.593 510.329 97.5238 507.117 94.6215L505.714 93.3845L511.828 87.2707H553.934L557.027 90.3871Z" fill="black"/>
<path d="M524.127 16.6172C523.032 17.2833 522.414 18.4252 522.414 19.7811C522.414 22.0173 523.936 23.6112 526.077 23.6112C528.337 23.6112 529.884 22.0649 529.884 19.8287C529.884 17.6639 528.313 16.1414 526.053 16.1414C525.34 16.1414 524.626 16.3079 524.127 16.6172ZM527.029 18.9009C527.481 19.3291 527.528 20.4472 527.124 20.8516C526.387 21.5891 524.793 20.923 524.793 19.9001C524.793 18.7344 526.244 18.0921 527.029 18.9009Z" fill="black"/>
<path d="M537.615 16.7123C536.449 17.5212 535.878 18.7582 536.021 20.2331C536.092 20.8754 536.354 21.708 536.616 22.0411C537.163 22.8023 538.923 23.7539 539.78 23.7539C540.874 23.7539 542.468 22.7548 543.039 21.7318C543.705 20.5424 543.729 19.4243 543.11 18.1873C542.42 16.7837 541.612 16.2841 539.899 16.189C538.686 16.1176 538.352 16.189 537.615 16.7123ZM540.731 18.9961C541.302 19.567 541.326 19.9001 540.826 20.6137C540.303 21.375 539.09 21.256 538.614 20.3996C538.305 19.8287 538.305 19.7098 538.662 19.1388C539.161 18.3776 540.065 18.33 540.731 18.9961Z" fill="black"/>
<path d="M528.432 30.6527C527.695 30.962 527.481 31.9611 528.004 32.5559C528.409 33.0078 528.765 33.0316 533.285 33.0316C536.188 33.0316 538.329 32.9365 538.614 32.7937C539.256 32.4369 539.209 31.2712 538.543 30.7955C538.091 30.4862 537.211 30.4148 533.476 30.4386C531.002 30.4386 528.718 30.5338 528.432 30.6527Z" fill="black"/>
<path d="M493.129 40.4776C491.75 41.4054 491.203 42.4759 491.298 43.927C491.488 46.1156 492.868 47.424 495.033 47.424C496.174 47.424 496.555 47.3051 497.293 46.7341C498.434 45.8777 498.958 44.6883 498.791 43.3085C498.482 40.5728 495.318 39.0027 493.129 40.4776ZM496.008 42.7851C496.27 43.0468 496.484 43.4275 496.484 43.6178C496.484 44.046 495.437 45.1641 495.056 45.1641C494.676 45.1641 493.629 44.046 493.629 43.6178C493.629 43.1182 494.485 42.3094 495.056 42.3094C495.318 42.3094 495.746 42.5235 496.008 42.7851Z" fill="black"/>
<path d="M503.287 47.3764C502.931 47.876 502.954 48.0425 503.383 49.2796C503.644 50.017 503.858 50.9686 503.858 51.4206C503.858 52.5625 502.812 54.4894 501.717 55.3696C501.027 55.9167 500.766 56.2973 500.766 56.7731C500.766 57.5819 501.146 58.0102 501.884 58.0102C502.597 58.0102 504.643 56.1308 505.476 54.6797C506.047 53.7281 506.118 53.3713 506.118 51.3492C506.118 49.3747 506.047 48.9465 505.524 48.0187C504.786 46.7103 503.882 46.4487 503.287 47.3764Z" fill="black"/>
<path d="M489.918 53.4664C488.467 54.1325 487.801 55.203 487.801 56.8683C487.801 58.367 488.253 59.1758 489.585 60.0798C491.084 61.1027 493.558 60.6269 494.628 59.1282C495.437 58.0101 495.508 55.9881 494.771 54.9414C493.558 53.1572 491.75 52.61 489.918 53.4664ZM492.559 56.107C493.082 56.678 492.892 57.6533 492.178 58.0339C490.941 58.6762 489.656 57.3441 490.417 56.2022C490.869 55.4885 491.964 55.4409 492.559 56.107Z" fill="black"/>
<path d="M569.516 40.097C568.707 40.43 567.827 41.1913 567.47 41.905C566.923 42.9517 566.971 44.7359 567.589 45.735C568.184 46.6866 569.754 47.543 570.92 47.543C572.704 47.543 574.345 46.0205 574.631 44.0935C574.797 42.9517 574.06 41.3102 573.037 40.549C572.395 40.0732 570.23 39.7877 569.516 40.097ZM571.61 42.69C572.228 43.1182 572.323 44.2363 571.776 44.6883C570.872 45.4495 569.516 44.7834 569.516 43.594C569.516 43.0706 570.301 42.3094 570.825 42.3094C570.967 42.3094 571.324 42.4759 571.61 42.69Z" fill="black"/>
<path d="M559.215 48.6848C558.573 49.3985 558.74 49.8743 559.977 51.0162C560.619 51.6109 561.333 52.4673 561.523 52.8955C561.999 53.8946 562.023 55.8691 561.547 56.9872C561.071 58.1053 561.095 58.5573 561.666 59.0807C562.95 60.2463 564.378 58.0815 564.401 54.9176C564.401 52.61 563.616 50.8972 561.832 49.3271C560.5 48.1615 559.834 47.995 559.215 48.6848Z" fill="black"/>
<path d="M572.68 53.514C570.777 54.4656 570.039 56.6304 570.991 58.4859C571.728 59.9371 572.823 60.6269 574.369 60.6269C576.51 60.6269 578.128 59.0569 578.128 56.9872C578.128 55.7026 577.818 54.9414 576.986 54.1563C575.654 52.9193 574.274 52.7052 572.68 53.514ZM575.463 56.0832C575.987 57.0586 575.416 58.248 574.44 58.248C573.37 58.248 572.632 56.6542 573.37 55.9167C573.846 55.4409 575.178 55.5599 575.463 56.0832Z" fill="black"/>
<path d="M520.725 90.7677C520.463 91.0532 520.392 92.0285 520.392 94.6453C520.392 97.2621 520.463 98.2375 520.725 98.5229C521.01 98.8798 522.152 98.9273 532.881 98.9273C544.038 98.9273 544.728 98.9036 545.085 98.4991C545.418 98.1185 545.489 97.4762 545.489 94.5026C545.489 92.0523 545.394 90.8391 545.204 90.6487C544.99 90.4346 541.945 90.3633 532.976 90.3633C522.176 90.3633 521.01 90.4109 520.725 90.7677ZM542.991 96.4295L532.952 96.5009L522.89 96.5484V92.7422H543.134L542.991 96.4295Z" fill="black"/>
<path d="M182.171 46.3416C181.612 46.6033 181.112 47.1029 180.934 47.5786C180.755 48.0544 180.767 49.0298 180.969 49.4818C181.065 49.6959 183.039 51.7655 185.43 54.1444L189.724 58.4265L138.637 58.5454L138.185 58.8309C137.935 58.9855 137.59 59.3304 137.412 59.5921C137.138 59.9965 137.09 60.2106 137.09 60.8648C137.09 61.519 137.138 61.7331 137.412 62.1375C137.59 62.3992 137.935 62.7442 138.185 62.8988L138.637 63.1843L189.724 63.3032L185.43 67.5852C183.039 69.9641 181.065 72.0338 180.969 72.2479C180.767 72.6999 180.755 73.6752 180.934 74.151C181.362 75.3048 182.92 75.9233 184.038 75.3999C184.55 75.1621 197.17 62.768 197.598 62.0781C198.002 61.4239 197.99 60.2463 197.562 59.604C197.063 58.8547 184.55 46.5676 184.038 46.3297C183.467 46.0561 182.765 46.068 182.171 46.3416Z" fill="black"/>
<path d="M277.624 0.321667C274.27 1.15428 271.701 2.93846 269.298 6.1262L268.68 6.93503L267.443 6.64956C265.635 6.26893 262.471 6.31651 260.948 6.7685C259.045 7.33944 257.951 7.95796 256.547 9.29014C254.335 11.3836 253.074 13.8576 252.741 16.8551C252.598 18.2586 252.574 18.2824 251.837 18.2824C251.433 18.2824 250.291 18.4965 249.315 18.782C240.799 21.1371 236.469 30.0342 239.205 39.5736C239.324 39.978 239.062 40.1921 237.468 40.9296C231.426 43.8319 228 49.8029 228.476 56.6066C228.738 60.4604 230.26 64.0288 232.782 66.7645L234.257 68.3584L233.139 69.6192C231.664 71.2844 230.855 72.8069 230.284 75.0431C229.451 78.326 229.808 81.5613 231.355 84.7966C232.806 87.8178 236.041 90.5774 238.801 91.1959C239.205 91.2673 239.562 91.41 239.562 91.5051C239.562 91.5765 239.395 92.5519 239.181 93.6699C238.682 96.3105 238.848 99.8075 239.562 102.139C240.418 104.851 241.417 106.492 243.487 108.586C246.746 111.869 250.433 113.296 255.5 113.272C257.475 113.248 258.76 113.106 260.116 112.749C261.162 112.463 262.019 112.249 262.042 112.249C262.066 112.249 262.447 112.963 262.899 113.843C264.065 116.198 266.967 119.053 269.298 120.171C274.032 122.407 279.218 122.217 283.548 119.695C285.38 118.625 287.449 116.65 288.543 114.937L289.352 113.7L290.233 115.056C291.493 117.007 293.944 119.196 295.989 120.195C300.176 122.264 304.839 122.241 309.264 120.171C311.595 119.053 314.497 116.198 315.663 113.867C316.115 112.963 316.496 112.249 316.519 112.249C316.543 112.249 317.4 112.463 318.446 112.749C319.802 113.106 321.087 113.248 323.061 113.272C326.368 113.296 328.295 112.868 331.126 111.488C332.744 110.727 333.529 110.132 335.075 108.586C337.145 106.492 338.144 104.851 339 102.139C339.714 99.8075 339.88 96.3105 339.381 93.6699C339.167 92.5519 339 91.5765 339 91.5051C339 91.41 339.357 91.2673 339.785 91.1959C341.355 90.8628 343.758 89.3641 345.066 87.9368C349.777 82.727 349.919 74.6387 345.423 69.6192L344.305 68.3584L345.78 66.7645C349.301 62.9583 350.847 57.4154 349.848 52.3008C349.348 49.7315 347.754 46.4487 346.137 44.6407C344.805 43.142 342.307 41.3816 340.427 40.5965C339.381 40.1683 339.214 40.0256 339.357 39.5974C339.952 37.5515 340.237 35.1013 340.118 33.0316C339.857 28.5117 338.524 25.3716 335.693 22.5644C334.647 21.5177 333.291 20.4472 332.458 20.019C330.888 19.1864 327.891 18.2824 326.749 18.2824C326.035 18.2824 326.011 18.2586 325.726 16.4507C325.012 11.8594 321.92 8.10069 317.875 6.86366C316.139 6.31651 313.118 6.22135 311.119 6.64956L309.882 6.93503L309.288 6.1262C308.955 5.67421 308.003 4.62749 307.123 3.77108C302.365 -0.939153 294.681 -1.29599 290.494 3.03362L289.424 4.12792L288.425 3.12878C285.855 0.583347 281.359 -0.582317 277.624 0.321667ZM283.595 4.41339C284.999 5.0319 286.331 6.22136 286.973 7.4346L287.497 8.40995L287.616 96.5722L286.379 95.5731C283.548 93.3131 279.48 92.0999 275.602 92.3378C273.033 92.5043 270.059 93.3845 268.418 94.4788C267.395 95.1687 267.276 95.3352 267.205 96.2154C267.133 97.048 267.228 97.2859 267.776 97.7141C268.608 98.3802 269.036 98.3564 270.725 97.5C277.886 93.884 286.759 97.6903 287.497 104.732C287.592 105.683 287.521 106.778 287.283 107.967C285.95 114.271 281.074 118.292 275.245 117.887C270.607 117.554 266.943 114.652 265.492 110.132C264.659 107.491 264.16 107.325 260.829 108.538C253.859 111.06 246.817 108.681 243.868 102.805C242.559 100.188 242.321 95.7396 243.32 92.5994C244.034 90.3633 246.461 87.4134 248.84 85.9623C249.434 85.5817 250.029 85.1297 250.196 84.9156C251.004 83.8689 250.029 82.0371 248.673 82.0371C247.269 82.0371 243.796 84.6539 242.298 86.7949C241.631 87.7703 241.584 87.794 240.537 87.6275C238.301 87.2945 235.97 85.5103 234.828 83.2503C233.662 80.9904 233.353 77.7551 234.09 75.3286C234.447 74.0915 235.684 72.3549 236.993 71.2607L238.111 70.3091L240.038 70.7135C241.084 70.9276 242.94 71.0941 244.177 71.0941C246.056 71.0941 246.484 71.0228 247.032 70.5946C247.507 70.2139 247.65 69.9047 247.65 69.2148C247.65 67.6923 247.127 67.4306 243.749 67.2641C239.681 67.05 238.111 66.5028 236.112 64.6473C233.377 62.0781 231.949 58.2242 232.259 54.3228C232.734 48.9465 236.16 44.9975 241.774 43.3799C243.32 42.9279 243.963 42.238 243.772 41.1913C243.701 40.8106 243.368 39.7163 243.011 38.741C242.44 37.1947 242.345 36.5762 242.321 34.1021C242.298 31.6756 242.393 31.0096 242.845 29.6298C243.535 27.6791 244.986 25.4429 246.223 24.4676C248.221 22.8975 251.409 21.8746 254.406 21.8508C255.048 21.8508 255.524 21.6842 255.905 21.3274C256.381 20.8754 256.452 20.59 256.452 18.9723C256.452 15.1898 257.975 12.3589 260.805 10.9316C262.233 10.1941 262.59 10.099 264.255 10.1228C265.254 10.1466 266.491 10.2893 267.014 10.4796C267.895 10.7889 267.918 10.8126 268.014 12.0973C268.299 16.2366 269.869 18.0921 271.796 16.5696C272.391 16.1176 272.438 15.9511 272.319 14.9757C272.224 14.381 272.058 13.4057 271.939 12.8109C271.629 11.4074 271.867 9.31393 272.415 8.38616C273.509 6.57819 276.245 4.53233 278.267 4.00897C279.67 3.67593 282.358 3.86624 283.595 4.41339ZM301.937 4.69885C303.721 5.53147 305.814 7.57733 306.718 9.3853C307.051 10.0514 307.48 10.7175 307.694 10.884C308.217 11.336 309.216 11.2646 310.929 10.6699C311.976 10.3131 313.07 10.1228 314.307 10.1228C315.949 10.099 316.329 10.1941 317.756 10.9316C320.587 12.3589 322.11 15.1898 322.11 18.9485C322.11 21.1847 322.562 21.8508 324.108 21.8508C327.153 21.8746 330.341 22.8737 332.339 24.4676C334.433 26.1328 336.074 29.606 336.312 32.9127C336.455 35.0537 335.979 38.0035 335.194 39.7401C334.195 41.9287 334.647 42.7138 337.406 43.5702C341.569 44.8786 344.495 47.6619 345.804 51.5871C346.351 53.2047 346.399 57.1062 345.923 58.8428C345.066 61.8878 342.902 64.7662 340.309 66.2649C338.001 67.5971 338.049 69.0007 340.427 70.4756C344.043 72.7118 345.59 76.518 344.614 80.7049C343.591 85.0107 340.57 87.7465 336.812 87.7465C334.385 87.7465 334.004 88.5791 335.004 91.7906C337.787 100.83 333.648 108.157 325.036 109.442C322.824 109.751 320.302 109.442 317.78 108.538C314.402 107.325 313.926 107.468 313.07 110.132C311.619 114.652 307.955 117.554 303.316 117.887C298.916 118.196 294.776 115.865 292.897 112.011C291.779 109.751 291.422 107.705 291.422 103.495V99.8789H300.89L301.176 100.593C301.556 101.52 302.888 102.876 303.983 103.423C309.026 105.993 314.664 100.593 312.261 95.4779C311.976 94.8118 311.286 93.9078 310.762 93.4321C307.765 90.7201 302.817 91.7668 301.152 95.4541L300.866 96.0726H291.422V76.0898H304.244L309.145 77.993L309.169 80.1815C309.169 81.8944 309.311 82.7032 309.716 83.7499C310.453 85.6768 312.237 87.5324 314.212 88.5077C315.711 89.2452 315.949 89.2928 318.304 89.2928C320.587 89.2928 320.92 89.2214 322.229 88.6029C326.891 86.2953 328.771 80.586 326.344 76.0423C324.513 72.5928 320.349 70.5232 316.734 71.2844C314.83 71.6889 313.022 72.569 311.928 73.6633L310.977 74.6149L304.982 72.2836H291.422V60.6269H319.208L319.612 61.8164C320.468 64.3856 322.871 66.6694 325.607 67.5258C329.199 68.6201 332.506 67.6685 335.146 64.79C338.453 61.1979 338.263 55.8215 334.694 52.2532C334.052 51.6109 332.91 50.8021 332.149 50.4452C330.959 49.8743 330.507 49.8029 328.295 49.8029C326.059 49.8029 325.654 49.8743 324.465 50.469C322.514 51.4206 321.087 52.7765 320.254 54.4894C319.85 55.322 319.469 56.1784 319.398 56.3925C319.279 56.7969 318.399 56.8207 305.339 56.8207H291.422V45.6398H304.982L310.929 43.2609L311.904 44.2125C315.354 47.5667 320.825 47.5905 324.489 44.2839C329.199 40.0494 328.01 32.1752 322.229 29.3205C320.92 28.702 320.587 28.6306 318.304 28.6306C315.949 28.6306 315.711 28.6782 314.212 29.4157C312.237 30.391 310.453 32.2466 309.716 34.1735C309.311 35.2202 309.169 36.029 309.169 37.7419L309.145 39.9305L304.244 41.8336H291.422V23.0402H299.391L300.034 24.2059C302.365 28.4403 308.479 28.3452 310.739 24.0156C312.309 20.9944 311.119 17.3308 308.027 15.8083C304.982 14.2858 301.271 15.5942 299.796 18.6868L299.415 19.4719H291.398L291.47 13.8101C291.541 8.52889 291.565 8.10069 292.064 7.19671C292.754 5.88831 294.348 4.55612 295.704 4.12792C297.441 3.55698 300.081 3.79487 301.937 4.69885ZM306.909 19.686C307.408 20.2093 307.599 20.6137 307.599 21.256C307.599 22.4693 306.552 23.516 305.339 23.516C304.696 23.516 304.292 23.3257 303.768 22.8261C303.269 22.3028 303.079 21.8983 303.079 21.256C303.079 20.6137 303.269 20.2093 303.768 19.686C304.292 19.1864 304.696 18.9961 305.339 18.9961C305.981 18.9961 306.385 19.1864 306.909 19.686ZM320.397 32.6986C323.228 33.8642 324.417 37.4088 322.919 40.1921C321.039 43.6178 316.02 43.8794 313.855 40.6679C311.429 37.0758 313.855 32.318 318.137 32.318C318.898 32.318 319.897 32.4845 320.397 32.6986ZM330.388 53.8708C332.387 54.7035 333.624 56.6066 333.624 58.8428C333.6 61.0076 332.529 62.7204 330.579 63.6244C329.08 64.3142 327.581 64.338 326.154 63.6957C324.013 62.7442 322.99 61.1503 322.966 58.8428C322.966 56.6304 324.18 54.7272 326.154 53.8708C327.248 53.3951 329.27 53.3951 330.388 53.8708ZM319.897 75.2572C322.134 75.9233 323.537 77.874 323.537 80.3005C323.513 83.4644 321.372 85.6055 318.185 85.6055C314.711 85.6055 312.166 82.3226 313.046 79.0397C313.546 77.1841 314.735 75.8995 316.543 75.2572C317.756 74.829 318.423 74.829 319.897 75.2572ZM307.717 95.9537C308.955 96.5484 309.335 97.8568 308.669 99.1414C307.67 101.116 304.506 100.307 304.506 98.0947C304.506 97.0004 304.815 96.4057 305.648 95.9775C306.48 95.5255 306.766 95.5255 307.717 95.9537Z" fill="black"/>
<path d="M274.556 21.9935C272.771 22.4693 271.225 23.3495 269.346 24.9909C267.466 26.6086 266.158 27.3223 264.945 27.3223C263.731 27.3223 263.089 27.013 261.709 25.7998C260.401 24.6341 259.735 24.4676 258.879 25.0861C257.071 26.3469 258.308 28.6782 261.686 30.4386C262.566 30.8906 263.137 31.0096 264.778 31.0096C266.562 31.0096 266.991 30.9144 268.347 30.2721C269.203 29.8677 270.583 28.9161 271.439 28.1549C274.437 25.5381 276.554 24.9434 279.504 25.9187L281.193 26.4659L281.859 25.9663C283.262 24.9196 283.096 23.4209 281.502 22.612C279.551 21.6129 276.839 21.375 274.556 21.9935Z" fill="black"/>
<path d="M272.748 33.3885C271.463 34.6493 272.2 36.2194 274.222 36.6C275.864 36.8855 276.744 37.3612 277.41 38.289C277.957 39.0741 278.267 40.9058 278.005 41.9287C277.648 43.3323 275.555 44.9024 273.985 44.9262C273.128 44.9262 272.153 45.9015 272.153 46.7103C272.153 47.091 272.438 47.6381 272.866 48.0663C273.556 48.7562 273.675 48.78 274.841 48.6373C277.458 48.2804 279.837 46.6866 281.074 44.4028C282.002 42.7138 282.192 39.8829 281.526 37.9798C280.883 36.1718 278.695 33.9832 276.839 33.2933C274.936 32.6034 273.485 32.6272 272.748 33.3885Z" fill="black"/>
<path d="M249.791 41.1675C249.03 41.5719 248.673 42.571 248.982 43.4275C249.149 43.9508 249.696 44.3314 251.456 45.2116C254.002 46.4487 255.691 47.9236 257.023 49.9694C257.737 51.1113 258.855 53.7995 258.831 54.3704C258.831 54.4656 258.379 54.751 257.856 54.9889C255.167 56.2498 252.075 59.4613 252.075 61.0314C252.075 62.0543 252.836 62.768 253.907 62.768C254.501 62.768 254.953 62.4349 256.428 60.8886C259.354 57.8674 262.709 56.6542 266.348 57.2727C271.296 58.1529 274.841 61.8164 275.531 66.8121C275.864 69.2386 276.316 69.9047 277.648 69.9047C278.742 69.9047 279.527 69.0483 279.527 67.835C279.527 65.1469 278.005 61.0314 276.245 58.9141C273.271 55.3696 269.488 53.514 264.897 53.3713L262.518 53.2999L262.138 52.0153C260.948 48.0187 257.57 43.9746 253.835 42.1191C251.504 40.9534 250.624 40.7393 249.791 41.1675Z" fill="black"/>
<path d="M263.922 69.3813C260.972 71.5223 259.354 75.3762 259.973 78.7542C260.758 83.0125 263.85 86.0812 268.085 86.8187C269.798 87.128 271.725 86.8663 273.58 86.0574C274.889 85.4865 275.317 84.9394 275.293 83.8689C275.245 82.3939 273.913 81.7516 272.296 82.4891C269.869 83.5596 267.49 83.2503 265.706 81.6327C262.804 78.9921 263.042 74.7101 266.229 72.4263C267.419 71.5937 267.752 70.7849 267.371 69.8571C266.824 68.5249 265.373 68.3346 263.922 69.3813Z" fill="black"/>
<path d="M317.423 35.8863C316.305 36.3383 316.067 37.956 316.995 38.86C317.923 39.8115 319.279 39.6212 319.85 38.4793C320.349 37.5278 320.302 37.1233 319.517 36.3383C318.803 35.6246 318.327 35.5295 317.423 35.8863Z" fill="black"/>
<path d="M327.106 57.4868C326.273 58.3432 326.202 59.1282 326.891 60.0084C327.867 61.2455 330.198 60.4366 330.198 58.8666C330.198 58.1053 329.318 57.13 328.485 56.9159C327.962 56.7969 327.676 56.9158 327.106 57.4868Z" fill="black"/>
<path d="M316.995 79.0635C315.877 80.1578 316.448 81.8706 317.994 82.1798C318.637 82.2988 318.875 82.2036 319.517 81.5851C320.135 80.9428 320.231 80.7049 320.112 80.0626C319.802 78.5163 318.09 77.9454 316.995 79.0635Z" fill="black"/>
<path d="M425.771 46.3416C425.212 46.6033 424.712 47.1029 424.534 47.5786C424.355 48.0544 424.367 49.0298 424.569 49.4818C424.665 49.6959 426.639 51.7655 429.03 54.1444L433.324 58.4265L382.237 58.5454L381.785 58.8309C381.535 58.9855 381.19 59.3304 381.012 59.5921C380.738 59.9965 380.69 60.2106 380.69 60.8648C380.69 61.519 380.738 61.7331 381.012 62.1375C381.19 62.3992 381.535 62.7442 381.785 62.8988L382.237 63.1843L433.324 63.3032L429.03 67.5852C426.639 69.9641 424.665 72.0338 424.569 72.2479C424.367 72.6999 424.355 73.6752 424.534 74.151C424.962 75.3048 426.52 75.9233 427.638 75.3999C428.15 75.1621 440.77 62.768 441.198 62.0781C441.602 61.4239 441.59 60.2463 441.162 59.604C440.663 58.8547 428.15 46.5676 427.638 46.3297C427.067 46.0561 426.365 46.068 425.771 46.3416Z" fill="black"/>
<path d="M10.5921 4.05656C9.94978 4.1755 8.54622 4.69886 7.47571 5.19843C3.85978 6.93503 0.95751 10.7175 0.267627 14.5713C-0.089209 16.5458 -0.089209 105.184 0.267627 107.158C1.10024 111.773 4.69239 115.746 9.52157 117.388C10.7824 117.816 12.2573 117.84 45.681 117.84C79.1046 117.84 80.5795 117.816 81.8403 117.388C86.0986 115.937 89.1198 113.034 90.6899 108.847L91.237 107.372L91.3559 27.7029L67.4479 3.77109L39.6147 3.79488C23.3668 3.81867 11.282 3.91382 10.5921 4.05656ZM64.7122 12.8823C64.7122 19.0675 64.9025 20.3283 66.1395 22.9213C67.6383 26.0852 70.1599 28.3214 73.7283 29.6774C75.227 30.2483 75.56 30.2721 81.4359 30.3673L87.5497 30.4624V83.7023H3.8122L3.93114 14.833L4.69239 13.2391C5.09681 12.3589 5.88185 11.1695 6.40521 10.5985C7.45192 9.45667 9.61673 8.19585 11.0917 7.83902C11.615 7.72007 23.4382 7.62492 38.3777 7.60113L64.7122 7.57734V12.8823ZM83.9338 26.561C83.5056 26.6086 81.4835 26.6086 79.4614 26.561C75.8931 26.4896 75.7265 26.4659 74.1802 25.7284C71.9679 24.6817 70.5881 23.3495 69.5176 21.1847L68.6374 19.3767L68.4947 10.3131L76.6067 18.4014C84.5285 26.3231 84.695 26.4896 83.9338 26.561ZM87.4308 106.897L86.6695 108.491C85.6228 110.703 84.2906 112.083 82.1258 113.153L80.3178 114.033H11.0679L9.47399 113.272C7.26161 112.225 5.88185 110.893 4.81134 108.728L3.93114 106.92L3.78841 87.5086H87.5735L87.4308 106.897Z" fill="black"/>
<path d="M29.1475 34.8158L28.5528 35.3868V71.1179L29.1475 71.6889C29.9088 72.4739 31.0031 72.4739 31.7643 71.6889L32.3591 71.1179V35.3868L31.7643 34.8158C31.4075 34.4352 30.9079 34.2211 30.4559 34.2211C30.004 34.2211 29.5044 34.4352 29.1475 34.8158Z" fill="black"/>
<path d="M59.5975 34.8158L59.0028 35.3868V71.1179L59.5975 71.6889C60.3588 72.4739 61.4531 72.4739 62.2143 71.6889L62.8091 71.1179V35.3868L62.2143 34.8158C61.8575 34.4352 61.3579 34.2211 60.9059 34.2211C60.454 34.2211 59.9544 34.4352 59.5975 34.8158Z" fill="black"/>
<path d="M21.535 42.4283L20.9403 42.9992V63.5054L21.535 64.0764C21.8919 64.457 22.3915 64.6711 22.8434 64.6711C23.2954 64.6711 23.795 64.457 24.1518 64.0764L24.7466 63.5054V42.9992L24.1518 42.4283C23.795 42.0477 23.2954 41.8336 22.8434 41.8336C22.3915 41.8336 21.8919 42.0477 21.535 42.4283Z" fill="black"/>
<path d="M36.76 42.4283L36.1653 42.9992V63.5054L36.76 64.0764C37.1169 64.457 37.6165 64.6711 38.0684 64.6711C38.5204 64.6711 39.02 64.457 39.3768 64.0764L39.9716 63.5054V42.9992L39.3768 42.4283C39.02 42.0477 38.5204 41.8336 38.0684 41.8336C37.6165 41.8336 37.1169 42.0477 36.76 42.4283Z" fill="black"/>
<path d="M51.985 42.4283L51.3903 42.9992V63.5054L51.985 64.0764C52.3419 64.457 52.8415 64.6711 53.2934 64.6711C53.7454 64.6711 54.245 64.457 54.6018 64.0764L55.1966 63.5054V42.9992L54.6018 42.4283C54.245 42.0477 53.7454 41.8336 53.2934 41.8336C52.8415 41.8336 52.3419 42.0477 51.985 42.4283Z" fill="black"/>
<path d="M67.2101 42.4283L66.6153 42.9992V63.5054L67.2101 64.0764C67.5669 64.457 68.0665 64.6711 68.5184 64.6711C68.9704 64.6711 69.47 64.457 69.8269 64.0764L70.4216 63.5054V42.9992L69.8269 42.4283C69.47 42.0477 68.9704 41.8336 68.5184 41.8336C68.0665 41.8336 67.5669 42.0477 67.2101 42.4283Z" fill="black"/>
<path d="M44.3726 46.2346L43.7778 46.8055V59.6992L44.3726 60.2701C44.7294 60.6507 45.229 60.8648 45.681 60.8648C46.1329 60.8648 46.6325 60.6507 46.9893 60.2701L47.5841 59.6992V46.8055L46.9893 46.2346C46.6325 45.8539 46.1329 45.6398 45.681 45.6398C45.229 45.6398 44.7294 45.8539 44.3726 46.2346Z" fill="black"/>
<path d="M13.9225 50.0408C13.3516 50.588 13.3278 50.7783 13.3278 53.2523C13.3278 55.7264 13.3516 55.9167 13.9225 56.4639C14.2794 56.8445 14.779 57.0586 15.2309 57.0586C15.6829 57.0586 16.1825 56.8445 16.5393 56.4639C17.1103 55.9167 17.1341 55.7264 17.1341 53.2523C17.1341 50.7783 17.1103 50.588 16.5393 50.0408C16.1825 49.6602 15.6829 49.4461 15.2309 49.4461C14.779 49.4461 14.2794 49.6602 13.9225 50.0408Z" fill="black"/>
<path d="M74.8225 50.0408C74.2516 50.588 74.2278 50.7783 74.2278 53.2523C74.2278 55.7264 74.2516 55.9167 74.8225 56.4639C75.1794 56.8445 75.679 57.0586 76.1309 57.0586C76.5829 57.0586 77.0825 56.8445 77.4393 56.4639C78.0103 55.9167 78.0341 55.7264 78.0341 53.2523C78.0341 50.7783 78.0103 50.588 77.4393 50.0408C77.0825 49.6602 76.5829 49.4461 76.1309 49.4461C75.679 49.4461 75.1794 49.6602 74.8225 50.0408Z" fill="black"/>
<path d="M21.535 91.9096C21.202 92.2188 20.9403 92.6946 20.9403 92.9563C20.9403 93.218 21.3685 96.8577 21.8919 101.045C22.4152 105.231 22.8434 108.776 22.8434 108.919C22.8434 109.442 24.0091 110.346 24.6752 110.346C25.936 110.346 26.3167 109.799 27.4109 106.54C27.9581 104.827 28.4815 103.447 28.5528 103.447C28.6242 103.447 29.1475 104.827 29.6947 106.54C30.789 109.799 31.1696 110.346 32.4304 110.346C33.1203 110.346 34.2622 109.442 34.2622 108.871C34.2622 108.705 34.6904 105.184 35.2138 101.068C35.7371 96.9528 36.1653 93.3369 36.1653 93.0276C36.1653 92.2426 35.1424 91.3148 34.2622 91.3148C33.0727 91.3148 32.4304 92.1712 32.2401 93.9792C32.145 94.8356 31.9547 96.5009 31.7881 97.6427L31.5027 99.76L30.8366 97.7855C30.1467 95.7396 29.6233 95.1211 28.5528 95.1211C27.4823 95.1211 26.959 95.7396 26.2929 97.7379C25.936 98.7846 25.6268 99.641 25.603 99.641C25.5554 99.641 25.3413 98.0234 25.1034 96.0251C24.7228 92.9087 24.58 92.314 24.1281 91.862C23.3906 91.1245 22.2725 91.1483 21.535 91.9096Z" fill="black"/>
<path d="M46.4422 91.7193C45.8951 92.1712 39.9716 107.706 39.9716 108.657C39.9716 109.395 40.9945 110.346 41.8033 110.346C42.8738 110.346 43.4448 109.775 44.0395 108.086L44.5867 106.54H50.5815L51.1286 108.086C51.7234 109.775 52.2943 110.346 53.3648 110.346C54.1736 110.346 55.1966 109.395 55.1966 108.657C55.1966 107.706 49.2731 92.1712 48.7259 91.7193C48.4643 91.5052 47.9409 91.3148 47.5841 91.3148C47.2272 91.3148 46.7039 91.5052 46.4422 91.7193ZM48.3691 100.664C48.7259 101.639 49.0114 102.496 49.0114 102.567C49.0114 102.662 48.3691 102.734 47.5841 102.734C46.799 102.734 46.1567 102.662 46.1567 102.567C46.1567 102.258 47.4651 98.9273 47.5841 98.9273C47.6554 98.9273 48.0123 99.7124 48.3691 100.664Z" fill="black"/>
<path d="M59.5975 91.9096C59.2645 92.2188 59.0028 92.7184 59.0028 93.0276C59.0028 93.3369 59.9068 97.1669 61.0249 101.544C63.1659 110.061 63.2849 110.346 64.7122 110.346C66.1395 110.346 66.2585 110.061 68.3995 101.544C69.5176 97.1669 70.4216 93.3369 70.4216 93.0276C70.4216 92.2426 69.3986 91.3148 68.5184 91.3148C67.21 91.3148 66.8294 92.0047 65.7827 96.2392C65.2831 98.3802 64.7836 100.117 64.7122 100.117C64.6408 100.117 64.1413 98.3802 63.6417 96.2392C62.9518 93.4559 62.5474 92.2426 62.1668 91.8382C61.4531 91.1245 60.335 91.1483 59.5975 91.9096Z" fill="black"/>
</svg>
